# AST/ASF file generated using VICON BodyLanguage
# -----------------------------------------------
:version 1.10
:name VICON
:units
  mass 1.0
  length 0.45
  angle deg
:documentation
   .ast/.asf automatically generated from VICON data using
   VICON BodyBuilder and BodyLanguage model FoxedUp or BRILLIANT.MOD
:root
   order TX TY TZ RX RY RZ
   axis XYZ
   position 0 0 0  
   orientation 0 0 0 
:bonedata
  begin
     id 1 
     name lhipjoint
     direction 0.625129 -0.738222 0.253461 
     length 2.5165 
     axis 0 0 0  XYZ
  end
  begin
     id 2 
     name lfemur
     direction 0.34202 -0.939693 0  
     length 7.54288  
     axis 0 0 20  XYZ
    dof rx ry rz
    limits (-160.0 20.0)
           (-70.0 70.0)
           (-60.0 70.0)
  end
  begin
     id 3 
     name ltibia
     direction 0.34202 -0.939693 0   
     length 7.71864   
     axis 0 0 20   XYZ
    dof rx
    limits (-10.0 170.0)
  end
  begin
     id 4 
     name lfoot
     direction 0.0772037 -0.212115 0.97419   
     length 2.18429   
     axis -90 7.62852e-016 20   XYZ
    dof rx rz
    limits (-45.0 90.0)
           (-70.0 20.0)
  end
  begin
     id 5 
     name ltoes
     direction 1.53513e-011 -4.21834e-011 1   
     length 1.09718   
     axis -90 7.62852e-016 20   XYZ
    dof rx
    limits (-90.0 20.0)
  end
  begin
     id 6 
     name rhipjoint
     direction -0.621946 -0.740623 0.254285   
     length 2.50835  
     axis 0 0 0  XYZ 
  end
  begin
     id 7 
     name rfemur
     direction -0.34202 -0.939693 0   
     length 7.43366   
     axis 0 0 -20   XYZ
    dof rx ry rz
    limits (-160.0 20.0)
           (-70.0 70.0)
           (-70.0 60.0)
  end
  begin
     id 8 
     name rtibia
     direction -0.34202 -0.939693 0   
     length 7.77122   
     axis 0 0 -20   XYZ
    dof rx
    limits (-10.0 170.0)
 end
 begin
     id 9 
     name rfoot
     direction -0.082694 -0.2272 0.970331   
     length 2.2293  
     axis -90 -7.62852e-016 -20   XYZ
    dof rx rz
    limits (-45.0 90.0)
           (-20.0 70.0)
  end
  begin
     id 10 
     name rtoes
     direction -1.53565e-011 -4.21695e-011 1   
     length 1.1178   
     axis -90 -7.62852e-016 -20   XYZ
    dof rx
    limits (-90.0 20.0)
  end
  begin
     id 11 
     name lowerback
     direction -0.000695208 0.988391 -0.151929   
     length 1.95077   
     axis 0 0 0   XYZ
    dof rx ry rz
    limits (-20.0 45.0)
           (-30.0 30.0)
           (-30.0 30.0)
  end
  begin
     id 12 
     name upperback
     direction -0.00268925 0.999885 -0.0149203   
     length 1.96246   
     axis 0 0 0   XYZ
    dof rx ry rz
    limits (-20.0 45.0)
           (-30.0 30.0)
           (-30.0 30.0)
  end
  begin
     id 13 
     name thorax
     direction -0.000848408 0.998481 0.0550912   
     length 2.00867   
     axis 0 0 0   XYZ
    dof rx ry rz
    limits (-20.0 45.0)
           (-30.0 30.0)
           (-30.0 30.0)
  end
  begin
     id 14 
     name lowerneck
     direction -0.00577709 0.998999 0.0443608   
     length 1.75762   
     axis 0 0 0   XYZ
    dof rx ry rz
    limits (-20.0 45.0)
           (-30.0 30.0)
           (-30.0 30.0)
  end
  begin
     id 15 
     name upperneck
     direction 0.0320945 0.999136 0.0264105   
     length 1.72601   
     axis 0 0 0   XYZ
    dof rx ry rz
    limits (-20.0 45.0)
           (-30.0 30.0)
           (-30.0 30.0)
  end
  begin
     id 16
     name head
     direction 0.0120552 0.999916 0.00480151  
     length 1.79973  
     axis 0 0 0   XYZ
    dof rx ry rz
    limits (-20.0 45.0)
           (-30.0 30.0)
           (-30.0 30.0)
  end
  begin
     id 17 
     name lclavicle
     direction 0.909 0.371533 -0.188897  
     length 3.47956  
     axis 0 0 0   XYZ
    dof ry rz
    limits (-20.0 10.0)
           (0.0 20.0)
  end
  begin
     id 18 
     name lhumerus
     direction 1 -4.48963e-011 -6.48352e-028   
     length 5.52302   
     axis 180 -30 -90   XYZ
    dof rx ry rz
    limits (-60.0 90.0)
           (-90.0 90.0)
           (-90.0 90.0)
  end
  begin
     id 19
     name lradius
     direction 1 -4.48968e-011 -4.78536e-027   
     length 3.58675   
     axis 180 -30 -90   XYZ
    dof rx
    limits (-10.0 170.0)
  end
  begin
     id 20
     name lwrist
     direction 1 -4.48942e-011 -9.9435e-027   
     length 1.79337   
     axis 8.54312e-015 90 90   XYZ
    dof ry
    limits (-180.0 0.0)
 end
  begin
     id 21 
     name lhand
     direction 1 -4.4904e-011 -1.9887e-026   
     length 0.536412   
     axis 1.26896e-014 90 90   XYZ
    dof rx rz
    limits (-90.0 90.0)
           (-45.0 45.0)
  end
  begin
     id 22 
     name lfingers
     direction 1 -4.48893e-011 -3.9774e-026   
     length 0.432469   
     axis 2.53792e-014 90 90   XYZ
    dof rx
    limits (0.0 90.0)
  end
  begin
     id 23
     name lthumb
     direction 0.707107 -6.34934e-011 0.707107   
     length 0.620942   
     axis -90 45 2.85299e-015   XYZ
    dof rx rz
    limits (-45.0 45.0)
           (-45.0 45.0)
  end
  begin
     id 24 
     name rclavicle
     direction -0.89595 0.416672 -0.153813   
     length 3.44099  
     axis 0 0 0   XYZ 
    dof ry rz
    limits (-10.0 20.0)
           (-20.0 0.0)
  end
  begin
     id 25 
     name rhumerus
     direction -1 -4.48952e-011 5.57804e-028  
     length 5.8478   
     axis 180 30 90   XYZ
    dof rx ry rz
    limits (-90.0 60.0)
           (-90.0 90.0)
           (-90.0 90.0)
  end
  begin
     id 26 
     name rradius
     direction -1 -4.48967e-011 -7.93646e-027   
     length 3.62717   
     axis 180 30 90   XYZ
    dof rx
    limits (-10.0 170.0)
  end
  begin
     id 27 
     name rwrist
     direction -1 -4.49008e-011 -9.9435e-027   
     length 1.81359   
     axis 8.54312e-015 -90 -90   XYZ
    dof ry
    limits (-180.0 0.0)
  end
  begin
     id 28
     name rhand
     direction -1 -4.48812e-011 -1.9887e-026   
     length 0.650516   
     axis 1.26896e-014 -90 -90   XYZ
    dof rx rz
    limits (-90.0 90.0)
           (-45.0 45.0)
  end
  begin
     id 29
     name rfingers
     direction -1 -4.49228e-011 -3.9774e-026   
     length 0.524463   
     axis 2.53792e-014 -90 -90   XYZ
    dof rx
    limits (0.0 90.0)
  end
  begin
     id 30
     name rthumb
     direction -0.707107 -6.34912e-011 0.707107   
     length 0.753027   
     axis -90 -45 -2.85299e-015   XYZ
    dof rx rz
    limits (-45.0 45.0)
           (-45.0 45.0)
  end
:hierarchy
  begin
    root lhipjoint rhipjoint lowerback
    lhipjoint lfemur
    lfemur ltibia
    ltibia lfoot
    lfoot ltoes
    rhipjoint rfemur
    rfemur rtibia
    rtibia rfoot
    rfoot rtoes
    lowerback upperback
    upperback thorax
    thorax lowerneck lclavicle rclavicle
    lowerneck upperneck
    upperneck head
    lclavicle lhumerus
    lhumerus lradius
    lradius lwrist
    lwrist lhand lthumb
    lhand lfingers
    rclavicle rhumerus
    rhumerus rradius
    rradius rwrist
    rwrist rhand rthumb
    rhand rfingers
  end

#!OML:ASF F:\VICON\USERDATA\INSTALL\rory3\rory3.ASF
:FULLY-SPECIFIED
:DEGREES
60
root 4.42063 18.1755 -14.6432 2.55191 -33.6107 -5.37022
lowerback 11.0327 0.972773 5.67545
upperback 1.80215 1.97221 0.90367
thorax -4.13787 0.890065 -2.53144
lowerneck -3.07415 0.914211 2.60738
upperneck 5.11398 1.02033 1.0681
head 2.13473 0.58297 -0.0784879
rclavicle -9.22547e-014 7.62836e-015
rhumerus -27.652 -4.79896 -79.7745
rradius 24.5374
rwrist 16.951
rhand -19.8633 13.2334
rfingers 7.12502
rthumb 6.47178 -16.6477
lclavicle -9.22547e-014 7.62836e-015
lhumerus -33.583 -0.248493 88.1716
lradius 13.9539
lwrist 14.6799
lhand -38.7741 25.8235
lfingers 7.12502
lthumb -11.7858 55.4718
rfemur 0.25158 9.055 30.5639
rtibia 24.2655
rfoot -8.71434 -5.22833
rtoes -4.13855
lfemur -21.9075 3.23247 -15.1355
ltibia 57.5356
lfoot -6.98566 9.84764
ltoes -12.1715
61
root 4.34628 18.1667 -14.5133 2.71316 -33.7818 -5.49429
lowerback 11.1819 1.0495 5.65136
upperback 1.70172 2.08651 0.9083
thorax -4.31767 0.939854 -2.53506
lowerneck -2.87261 0.916808 2.72143
upperneck 4.89689 1.03576 0.938257
head 2.02908 0.586301 -0.139596
rclavicle -7.05825e-014 4.82053e-015
rhumerus -27.2511 -4.64461 -79.8349
rradius 24.93
rwrist 16.9195
rhand -19.8087 13.6132
rfingers 7.12502
rthumb 6.52454 -16.2663
lclavicle -7.05825e-014 4.82053e-015
lhumerus -34.3896 -0.115246 88.4772
lradius 13.8435
lwrist 15.5527
lhand -37.254 30.0077
lfingers 7.12502
lthumb -10.3197 59.7345
rfemur 0.453671 8.68585 30.7272
rtibia 24.4933
rfoot -8.26798 -4.87502
rtoes -9.09119
lfemur -22.4969 3.21965 -15.0626
ltibia 55.8112
lfoot -7.69703 10.2177
ltoes -12.5968
62
root 4.27146 18.1571 -14.3714 2.92894 -33.8529 -5.65804
lowerback 11.2129 1.12713 5.77683
upperback 1.61919 2.20952 0.88061
thorax -4.40548 0.99452 -2.6541
lowerneck -2.94903 0.89295 2.89933
upperneck 4.91608 0.996442 0.855524
head 2.0508 0.568438 -0.196554
rclavicle 6.6905e-014 -3.87009e-015
rhumerus -26.8665 -4.48752 -79.9674
rradius 25.4026
rwrist 16.6703
rhand -19.6112 13.8224
rfingers 7.12502
rthumb 6.71511 -16.0511
lclavicle 6.6905e-014 -3.87009e-015
lhumerus -35.0248 -0.17285 88.7211
lradius 13.1548
lwrist 14.8687
lhand -36.9808 30.0908
lfingers 7.12502
lthumb -10.0562 59.8305
rfemur 0.674545 8.28178 30.8595
rtibia 24.7251
rfoot -7.9999 -4.65767
rtoes -14.3769
lfemur -23.1028 3.00217 -14.9207
ltibia 53.8543
lfoot -8.13317 10.5117
ltoes -12.6133
63
root 4.19582 18.1491 -14.2234 3.08187 -33.8722 -5.93538
lowerback 11.3778 1.13536 5.9782
upperback 1.53787 2.26336 0.940392
thorax -4.57262 1.0112 -2.71883
lowerneck -2.96211 0.870725 2.88019
upperneck 4.98585 0.968458 0.811396
head 2.07587 0.55396 -0.207814
rclavicle 2.20371e-014 1.43808e-015
rhumerus -26.6601 -3.83439 -80.1358
rradius 26.1522
rwrist 16.0677
rhand -19.2721 14.4464
rfingers 7.12502
rthumb 7.04254 -15.4164
lclavicle 2.20371e-014 1.43808e-015
lhumerus -35.7321 -0.0478014 89.0183
lradius 12.1081
lwrist 13.0403
lhand -38.2123 28.4711
lfingers 7.12502
lthumb -11.2441 58.1498
rfemur 1.19186 8.08108 31.132
rtibia 24.8464
rfoot -8.21363 -4.73075
rtoes -15.4327
lfemur -23.5702 2.55484 -14.6035
ltibia 51.6214
lfoot -8.15008 10.733
ltoes -13.2361
64
root 4.11827 18.1544 -14.0757 3.03924 -33.9215 -5.93656
lowerback 11.4133 1.0838 5.9916
upperback 1.57459 2.19582 0.911674
thorax -4.55799 0.978496 -2.74721
lowerneck -2.72085 0.969588 2.58618
upperneck 4.76955 1.11446 1.047
head 1.959 0.623657 -0.081424
rclavicle -9.21678e-014 1.69712e-014
rhumerus -26.1915 -3.05899 -80.4194
rradius 26.6826
rwrist 15.6929
rhand -18.6907 15.3589
rfingers 7.12502
rthumb 7.60372 -14.4844
lclavicle -9.21678e-014 1.69712e-014
lhumerus -36.3386 0.258566 89.1459
lradius 11.822
lwrist 13.3156
lhand -37.6058 29.6816
lfingers 7.12502
lthumb -10.659 59.3912
rfemur 1.99502 8.00244 31.1989
rtibia 24.6177
rfoot -8.75567 -4.99605
rtoes -12.4081
lfemur -23.7302 2.0557 -14.5693
ltibia 49.1076
lfoot -7.94275 11.1872
ltoes -15.4161
65
root 4.03869 18.165 -13.9189 2.94754 -34.0588 -5.60145
lowerback 10.9783 1.20861 5.92338
upperback 1.86421 2.2927 0.587505
thorax -3.99202 1.04947 -3.04176
lowerneck -2.87588 0.943563 2.85234
upperneck 4.34456 1.06316 1.18366
head 1.84929 0.601025 -0.0853091
rclavicle 3.76573e-014 -1.22253e-014
rhumerus -25.313 -3.07166 -80.8115
rradius 27.1101
rwrist 15.1965
rhand -18.4838 17.0629
rfingers 7.12502
rthumb 7.80342 -12.7731
lclavicle 3.76573e-014 -1.22253e-014
lhumerus -36.3597 -0.0114628 89.1151
lradius 12.117
lwrist 15.4536
lhand -36.2018 31.6411
lfingers 7.12502
lthumb -9.30449 61.4158
rfemur 2.88511 7.71163 30.8261
rtibia 23.9282
rfoot -8.52472 -4.72239
rtoes -15.3433
lfemur -23.7578 1.46343 -14.8798
ltibia 46.3945
lfoot -7.72547 12.0005
ltoes -15.9683
66
root 3.95799 18.1752 -13.7602 3.13068 -34.2948 -5.84273
lowerback 10.7929 1.37483 6.15727
upperback 2.03489 2.51339 0.489156
thorax -3.67417 1.16899 -3.29414
lowerneck -3.22192 0.852658 3.38246
upperneck 4.19886 0.917344 0.928005
head 1.86838 0.530362 -0.257886
rclavicle 3.27995e-014 -1.799e-014
rhumerus -24.665 -3.05097 -81.0399
rradius 28.4779
rwrist 17.1713
rhand -18.3047 12.5149
rfingers 7.12502
rthumb 7.97629 -17.3146
lclavicle 3.27995e-014 -1.799e-014
lhumerus -36.6516 -0.212001 89.3044
lradius 12.3027
lwrist 16.5349
lhand -35.625 33.2454
lfingers 7.12502
lthumb -8.74796 63.0441
rfemur 3.80178 7.5925 30.9824
rtibia 23.1069
rfoot -7.97484 -4.49521
rtoes -16.5059
lfemur -23.7104 0.556659 -14.4882
ltibia 43.508
lfoot -7.93611 12.5843
ltoes -13.8341
67
root 3.87879 18.1713 -13.6106 3.26676 -34.3738 -6.07982
lowerback 10.9865 1.28236 6.11265
upperback 1.83304 2.42036 0.736676
thorax -4.01589 1.10892 -3.00978
lowerneck -3.0349 0.983472 3.1785
upperneck 4.45644 1.1212 0.604557
head 1.92218 0.624257 -0.319876
rclavicle -5.93993e-014 -1.09829e-014
rhumerus -24.5395 -2.09321 -80.9483
rradius 28.2172
rwrist 14.7017
rhand -19.9961 16.0115
rfingers 7.12502
rthumb 6.34355 -13.8735
lclavicle -5.93993e-014 -1.09829e-014
lhumerus -37.7018 0.528235 89.7423
lradius 12.0643
lwrist 16.504
lhand -35.3716 34.1208
lfingers 7.12502
lthumb -8.50342 63.9296
rfemur 5.13088 9.10547 31.3215
rtibia 22.221
rfoot -7.93104 -5.04939
rtoes -5.35361
lfemur -23.6636 -0.993751 -13.8869
ltibia 40.5133
lfoot -8.35297 13.1562
ltoes -0.613097
68
root 3.79798 18.1733 -13.4633 3.15077 -34.2873 -5.65552
lowerback 10.9933 1.14847 5.64519
upperback 1.67596 2.19721 0.72416
thorax -4.22355 0.996493 -2.73412
lowerneck -2.81025 1.11128 2.94614
upperneck 4.57547 1.31497 0.495717
head 1.92197 0.715258 -0.310295
rclavicle -1.64432e-014 -1.54058e-015
rhumerus -24.3905 -0.721568 -81.2522
rradius 29.0908
rwrist 14.0139
rhand -20.628 14.9544
rfingers 7.12502
rthumb 5.73351 -14.948
lclavicle -1.64432e-014 -1.54058e-015
lhumerus -38.5214 1.15998 89.9553
lradius 11.7304
lwrist 16.6203
lhand -34.8349 34.064
lfingers 7.12502
lthumb -7.98545 63.8932
rfemur 6.10019 9.28944 30.9905
rtibia 21.2722
rfoot -7.55298 -5.64555
rtoes -3.93854
lfemur -23.5091 -2.31342 -14.0181
ltibia 37.3791
lfoot -7.34786 13.7426
ltoes -3.96073
69
root 3.71519 18.1865 -13.3016 3.15853 -34.2676 -5.323
lowerback 10.6125 1.20686 5.57406
upperback 1.82696 2.22176 0.426953
thorax -3.84223 1.02315 -2.99255
lowerneck -2.95701 1.04253 3.06171
upperneck 4.32154 1.20482 0.729082
head 1.86325 0.664959 -0.259252
rclavicle 2.68359e-014 -2.54444e-014
rhumerus -23.7461 -0.496224 -81.6196
rradius 29.8679
rwrist 14.0819
rhand -20.4514 12.9741
rfingers 7.12502
rthumb 5.90399 -16.9237
lclavicle 2.68359e-014 -2.54444e-014
lhumerus -38.7142 0.959556 89.9457
lradius 11.4552
lwrist 16.6851
lhand -34.6927 34.3088
lfingers 7.12502
lthumb -7.84817 64.1432
rfemur 6.89128 8.72043 30.5983
rtibia 20.2802
rfoot -6.92194 -6.33466
rtoes -10.277
lfemur -23.2658 -3.20335 -14.2188
ltibia 34.1505
lfoot -6.96076 14.1903
ltoes -1.21999
70
root 3.6318 18.1981 -13.1318 3.36221 -34.3839 -5.36707
lowerback 10.1981 1.31063 5.7688
upperback 1.99431 2.33925 0.262073
thorax -3.41124 1.09544 -3.27059
lowerneck -3.11744 0.973287 3.13066
upperneck 3.99097 1.10031 0.909386
head 1.78252 0.614148 -0.216998
rclavicle 4.16702e-014 -2.80286e-014
rhumerus -23.067 -0.505714 -81.8061
rradius 30.3209
rwrist 14.0038
rhand -19.9788 11.6403
rfingers 7.12502
rthumb 6.36032 -18.2442
lclavicle 4.16702e-014 -2.80286e-014
lhumerus -38.8319 0.757321 89.9818
lradius 11.0056
lwrist 16.4259
lhand -35.2593 33.24
lfingers 7.12502
lthumb -8.39505 63.0532
rfemur 7.72304 8.90995 30.5909
rtibia 19.4966
rfoot -6.45295 -7.36031
rtoes -14.0536
lfemur -23.3717 -4.69533 -13.7332
ltibia 31.2645
lfoot -7.43029 14.3082
ltoes 5.20031
71
root 3.54868 18.2083 -12.9666 3.57471 -34.5771 -5.61885
lowerback 10.1708 1.32173 5.83515
upperback 1.96385 2.3656 0.401911
thorax -3.42879 1.10684 -3.16472
lowerneck -3.4383 1.05163 3.04643
upperneck 4.26271 1.20354 0.682526
head 1.93063 0.663772 -0.269605
rclavicle -1.47846e-014 3.67752e-015
rhumerus -22.8225 0.212607 -81.7606
rradius 31.0235
rwrist 14.0477
rhand -20.6954 14.6043
rfingers 7.12502
rthumb 5.66844 -15.2999
lclavicle -1.47846e-014 3.67752e-015
lhumerus -39.511 1.18002 90.2684
lradius 11.09
lwrist 16.2082
lhand -34.92 33.7476
lfingers 7.12502
lthumb -8.06759 63.5737
rfemur 8.79198 9.16463 30.778
rtibia 18.526
rfoot -6.05084 -7.41392
rtoes -14.2248
lfemur -23.9055 -6.85027 -12.6477
ltibia 28.8902
lfoot -8.32287 14.8365
ltoes 12.8234
72
root 3.46883 18.2072 -12.8121 3.74813 -34.7839 -5.76776
lowerback 10.3106 1.3863 5.77259
upperback 1.81355 2.46451 0.491343
thorax -3.66101 1.14662 -3.05691
lowerneck -3.74606 1.14787 3.13468
upperneck 4.72057 1.32255 0.417036
head 2.14122 0.724212 -0.363106
rclavicle 1.3418e-014 1.98785e-015
rhumerus -22.8081 0.914727 -81.7252
rradius 32.0071
rwrist 14.4243
rhand -20.7658 14.2179
rfingers 7.12502
rthumb 5.60047 -15.6881
lclavicle 1.3418e-014 1.98785e-015
lhumerus -40.3559 1.44368 90.5426
lradius 11.3275
lwrist 16.0339
lhand -34.4102 34.6191
lfingers 7.12502
lthumb -7.57554 64.4635
rfemur 9.87117 9.42543 30.9176
rtibia 17.3344
rfoot -5.35036 -6.53339
rtoes -12.7138
lfemur -23.2902 -7.50671 -12.3078
ltibia 27.2822
lfoot -10.1311 13.2097
ltoes 16.9568
73
root 3.38571 18.2034 -12.6528 3.83221 -35.0041 -5.79541
lowerback 10.2946 1.51656 5.77505
upperback 1.79364 2.63307 0.382344
thorax -3.65183 1.22981 -3.1927
lowerneck -4.00968 1.14582 3.45488
upperneck 4.86324 1.29657 0.263235
head 2.24102 0.71519 -0.466451
rclavicle 8.40114e-014 4.17448e-015
rhumerus -22.6764 1.03361 -81.8498
rradius 32.7871
rwrist 14.166
rhand -19.5157 9.2756
rfingers 7.12502
rthumb 6.80735 -20.595
lclavicle 8.40114e-014 4.17448e-015
lhumerus -40.7388 1.28979 90.5848
lradius 10.9993
lwrist 16.1578
lhand -35.2527 32.8883
lfingers 7.12502
lthumb -8.38868 62.7017
rfemur 10.9886 9.692 30.939
rtibia 16.1249
rfoot -4.66569 -4.88966
rtoes -9.76698
lfemur -22.8869 -8.21566 -12.1061
ltibia 26.3016
lfoot -11.628 11.5727
ltoes 16.6264
74
root 3.30262 18.1999 -12.4931 4.01115 -35.2368 -5.90823
lowerback 10.1355 1.55127 5.85222
upperback 1.75784 2.67712 0.346558
thorax -3.59145 1.25221 -3.27308
lowerneck -3.82707 1.13833 3.44899
upperneck 4.78781 1.29935 0.19019
head 2.18356 0.713307 -0.489159
rclavicle -9.93923e-015 -8.15017e-015
rhumerus -22.5672 1.63989 -82.0569
rradius 33.2487
rwrist 12.513
rhand -19.4918 9.35151
rfingers 7.12502
rthumb 6.83038 -20.5183
lclavicle -9.93923e-015 -8.15017e-015
lhumerus -41.1815 1.47226 90.5819
lradius 10.7233
lwrist 16.1933
lhand -36.2215 30.7741
lfingers 7.12502
lthumb -9.32352 60.5479
rfemur 11.95 9.99119 30.9758
rtibia 15.053
rfoot -3.95011 -5.54373
rtoes -13.0453
lfemur -22.8649 -8.59764 -11.8901
ltibia 26.0507
lfoot -12.7884 10.121
ltoes 2.67394
